<svg width="512" height="512" viewBox="0 0 500 500" xmlns="http://www.w3.org/2000/svg">

  <!-- ── LETTER C — orange slices arranged in arc ── -->
  <g transform="translate(185,250) rotate(150)">
    <path d="M55 -16 A130 130 0 0,1 55 16 L125 12 A68 68 0 0,0 125 -12 Z" fill="#f28c1a"/>
    <path d="M55 -16 A130 130 0 0,1 55 16 L125 12 A68 68 0 0,0 125 -12 Z" fill="none" stroke="#c8701a" stroke-width="1.5"/>
    <line x1="55" y1="0" x2="125" y2="0" stroke="#c8701a" stroke-width="0.8"/>
    <line x1="70" y1="-10" x2="110" y2="-8" stroke="#c8701a" stroke-width="0.6"/>
    <line x1="70" y1="10" x2="110" y2="8" stroke="#c8701a" stroke-width="0.6"/>
    <ellipse cx="90" cy="0" rx="3" ry="5" fill="#f5c878"/>
  </g>
  <g transform="translate(185,250) rotate(190)">
    <path d="M55 -16 A130 130 0 0,1 55 16 L125 12 A68 68 0 0,0 125 -12 Z" fill="#e87c14"/>
    <path d="M55 -16 A130 130 0 0,1 55 16 L125 12 A68 68 0 0,0 125 -12 Z" fill="none" stroke="#c8701a" stroke-width="1.5"/>
    <line x1="55" y1="0" x2="125" y2="0" stroke="#c8701a" stroke-width="0.8"/>
    <ellipse cx="88" cy="0" rx="3" ry="5" fill="#f5c878"/>
  </g>
  <g transform="translate(185,250) rotate(230)">
    <path d="M55 -16 A130 130 0 0,1 55 16 L125 12 A68 68 0 0,0 125 -12 Z" fill="#f5a020"/>
    <path d="M55 -16 A130 130 0 0,1 55 16 L125 12 A68 68 0 0,0 125 -12 Z" fill="none" stroke="#c8701a" stroke-width="1.5"/>
    <line x1="55" y1="0" x2="125" y2="0" stroke="#c8701a" stroke-width="0.8"/>
    <ellipse cx="90" cy="0" rx="3" ry="5" fill="#f5c878"/>
  </g>
  <g transform="translate(185,250) rotate(270)">
    <path d="M55 -16 A130 130 0 0,1 55 16 L125 12 A68 68 0 0,0 125 -12 Z" fill="#e87c14"/>
    <path d="M55 -16 A130 130 0 0,1 55 16 L125 12 A68 68 0 0,0 125 -12 Z" fill="none" stroke="#c8701a" stroke-width="1.5"/>
    <line x1="55" y1="0" x2="125" y2="0" stroke="#c8701a" stroke-width="0.8"/>
    <ellipse cx="88" cy="0" rx="3" ry="5" fill="#f5c878"/>
  </g>
  <g transform="translate(185,250) rotate(310)">
    <path d="M55 -16 A130 130 0 0,1 55 16 L125 12 A68 68 0 0,0 125 -12 Z" fill="#f28c1a"/>
    <path d="M55 -16 A130 130 0 0,1 55 16 L125 12 A68 68 0 0,0 125 -12 Z" fill="none" stroke="#c8701a" stroke-width="1.5"/>
    <line x1="55" y1="0" x2="125" y2="0" stroke="#c8701a" stroke-width="0.8"/>
    <ellipse cx="90" cy="0" rx="3" ry="5" fill="#f5c878"/>
  </g>
  <g transform="translate(185,250) rotate(350)">
    <path d="M55 -16 A130 130 0 0,1 55 16 L125 12 A68 68 0 0,0 125 -12 Z" fill="#f5a020"/>
    <path d="M55 -16 A130 130 0 0,1 55 16 L125 12 A68 68 0 0,0 125 -12 Z" fill="none" stroke="#c8701a" stroke-width="1.5"/>
    <line x1="55" y1="0" x2="125" y2="0" stroke="#c8701a" stroke-width="0.8"/>
    <ellipse cx="88" cy="0" rx="3" ry="5" fill="#f5c878"/>
  </g>
  <g transform="translate(185,250) rotate(30)">
    <path d="M55 -16 A130 130 0 0,1 55 16 L125 12 A68 68 0 0,0 125 -12 Z" fill="#e87c14"/>
    <path d="M55 -16 A130 130 0 0,1 55 16 L125 12 A68 68 0 0,0 125 -12 Z" fill="none" stroke="#c8701a" stroke-width="1.5"/>
    <line x1="55" y1="0" x2="125" y2="0" stroke="#c8701a" stroke-width="0.8"/>
    <ellipse cx="90" cy="0" rx="3" ry="5" fill="#f5c878"/>
  </g>
  <g transform="translate(185,250) rotate(70)">
    <path d="M55 -16 A130 130 0 0,1 55 16 L125 12 A68 68 0 0,0 125 -12 Z" fill="#f28c1a"/>
    <path d="M55 -16 A130 130 0 0,1 55 16 L125 12 A68 68 0 0,0 125 -12 Z" fill="none" stroke="#c8701a" stroke-width="1.5"/>
    <line x1="55" y1="0" x2="125" y2="0" stroke="#c8701a" stroke-width="0.8"/>
    <ellipse cx="88" cy="0" rx="3" ry="5" fill="#f5c878"/>
  </g>
  <!-- C center cutout + outer peel ring -->
  <circle cx="185" cy="250" r="53" fill="white" opacity="1"/>
  <circle cx="185" cy="250" r="130" fill="none" stroke="#8B4513" stroke-width="10"/>
  <circle cx="185" cy="250" r="55" fill="none" stroke="#8B4513" stroke-width="10"/>
  <!-- White wedge opens C gap on right -->
  <path d="M185 250 L325 168 A135 135 0 0,1 325 332 Z" fill="white"/>

  <!-- ── LETTER N left vertical — leek ── -->
  <rect x="323" y="115" width="34" height="270" rx="12" fill="#4a7c2a"/>
  <rect x="327" y="115" width="10" height="270" rx="5" fill="#5c9c38"/>
  <ellipse cx="340" cy="110" rx="20" ry="18" fill="#7bc142"/>
  <ellipse cx="340" cy="108" rx="14" ry="10" fill="#96d45a"/>
  <ellipse cx="326" cy="98" rx="8" ry="16" fill="#5a9c30" transform="rotate(-15 326 98)"/>
  <ellipse cx="354" cy="98" rx="8" ry="16" fill="#5a9c30" transform="rotate(15 354 98)"/>
  <ellipse cx="340" cy="90" rx="7" ry="18" fill="#6ab830"/>
  <line x1="323" y1="160" x2="357" y2="160" stroke="#3a6020" stroke-width="1.5"/>
  <line x1="323" y1="200" x2="357" y2="200" stroke="#3a6020" stroke-width="1.5"/>
  <line x1="323" y1="240" x2="357" y2="240" stroke="#3a6020" stroke-width="1.5"/>
  <line x1="323" y1="280" x2="357" y2="280" stroke="#3a6020" stroke-width="1.5"/>
  <line x1="323" y1="320" x2="357" y2="320" stroke="#3a6020" stroke-width="1.5"/>

  <!-- ── N diagonal — cherry tomatoes ── -->
  <circle cx="365" cy="155" r="18" fill="#d93030"/><circle cx="370" cy="148" r="6" fill="#e86060"/>
  <ellipse cx="365" cy="140" rx="3" ry="5" fill="#4a8c2a" transform="rotate(10 365 140)"/>
  <circle cx="385" cy="193" r="18" fill="#c82020"/><circle cx="390" cy="185" r="6" fill="#e05050"/>
  <ellipse cx="385" cy="178" rx="3" ry="5" fill="#4a8c2a" transform="rotate(10 385 178)"/>
  <circle cx="405" cy="231" r="18" fill="#d93030"/><circle cx="410" cy="223" r="6" fill="#e86060"/>
  <ellipse cx="405" cy="216" rx="3" ry="5" fill="#4a8c2a" transform="rotate(10 405 216)"/>
  <circle cx="425" cy="269" r="18" fill="#c82020"/><circle cx="430" cy="261" r="6" fill="#e05050"/>
  <ellipse cx="425" cy="254" rx="3" ry="5" fill="#4a8c2a" transform="rotate(10 425 254)"/>
  <circle cx="445" cy="307" r="18" fill="#d93030"/><circle cx="450" cy="299" r="6" fill="#e86060"/>
  <ellipse cx="445" cy="292" rx="3" ry="5" fill="#4a8c2a" transform="rotate(10 445 292)"/>

  <!-- ── N right vertical — carrot ── -->
  <path d="M448 115 Q462 115 465 385 Q458 388 452 388 Q446 388 438 385 Q442 115 448 115 Z" fill="#e87820"/>
  <path d="M440 170 Q453 173 462 170" fill="none" stroke="#c86010" stroke-width="1.5"/>
  <path d="M439 225 Q453 228 463 225" fill="none" stroke="#c86010" stroke-width="1.5"/>
  <path d="M439 280 Q453 283 463 280" fill="none" stroke="#c86010" stroke-width="1.5"/>
  <path d="M440 335 Q453 338 462 335" fill="none" stroke="#c86010" stroke-width="1.5"/>
  <path d="M452 120 Q456 115 458 160 Q457 200 455 385" fill="none" stroke="#f5a040" stroke-width="5" stroke-linecap="round"/>
  <path d="M448 385 Q452 395 452 410 Q449 405 448 385 Z" fill="#c86010"/>
  <path d="M448 115 Q436 95 428 75 Q438 85 445 115" fill="#4a9c2a"/>
  <path d="M448 115 Q448 92 448 70 Q451 85 451 115" fill="#5aac38"/>
  <path d="M448 115 Q460 95 468 75 Q458 85 451 115" fill="#4a9c2a"/>
  <path d="M448 115 Q470 100 480 82 Q465 95 453 115" fill="#3a8c20"/>
  <path d="M448 115 Q428 103 418 88 Q435 100 445 115" fill="#3a8c20"/>

  <!-- ── Decorative leaves top-center ── -->
  <ellipse cx="260" cy="100" rx="22" ry="9" fill="#5aac38" transform="rotate(-20 260 100)"/>
  <ellipse cx="278" cy="92" rx="18" ry="7" fill="#4a9c2a" transform="rotate(15 278 92)"/>
  <ellipse cx="246" cy="92" rx="16" ry="6" fill="#6abc48" transform="rotate(-35 246 92)"/>

  <!-- ── Strawberry bottom-center ── -->
  <polygon points="250,430 268,418 274,442 258,454 238,446" fill="#d93050"/>
  <polygon points="256,418 268,418 263,404" fill="#5aac38"/>
  <ellipse cx="247" cy="436" rx="2" ry="3" fill="#f5a0a0"/>
  <ellipse cx="258" cy="432" rx="2" ry="3" fill="#f5a0a0"/>
  <ellipse cx="252" cy="445" rx="2" ry="3" fill="#f5a0a0"/>
  <ellipse cx="264" cy="442" rx="2" ry="3" fill="#f5a0a0"/>

</svg>
